<svg xmlns="http://www.w3.org/2000/svg" viewBox="0 0 892 591"><defs><style>.cls-1{fill:#122333;}.cls-2{fill:#2eac68;}.cls-3,.cls-4{fill:#fff;}.cls-3{stroke:#2eac68;stroke-miterlimit:10;stroke-width:2.52px;}</style></defs><g id="Layer_2" data-name="Layer 2"><polygon class="cls-1" points="360.05 524.75 379.87 564.4 417.3 539.33 360.05 524.75"/><polygon class="cls-2" points="300.61 197.61 196.36 197.61 461.63 33.39 441.49 116.47 300.61 197.61"/><polygon class="cls-2" points="387.97 315.04 196.36 197.61 300.61 197.61 403.73 257.45 387.97 315.04"/><polygon class="cls-2" points="604.1 360.68 708.36 360.68 443.08 524.9 463.22 441.82 604.1 360.68"/><polygon class="cls-2" points="516.74 243.24 708.36 360.68 604.1 360.68 500.98 300.83 516.74 243.24"/><rect class="cls-1" x="423.97" y="31.69" width="55.9" height="508.49" transform="translate(86.18 -104.22) rotate(14.53)"/><path class="cls-3" d="M474.14,309.24l-8.65,33.42L422,289.07q5.81-20.24,11.33-41.54,6.15-23.78,11.33-46.58l25.18,15.11L495,231.16,477.6,295.89l-27.89-34.83-4.18,16.15Z"/><polygon class="cls-3" points="384.45 439.2 393.37 404.73 434.47 459.76 416.69 528.47 364.82 515.04 380.88 452.97 408.56 488.61 412.87 471.95 384.45 439.2"/><polygon class="cls-3" points="417.35 310.43 459.82 366.97 452.55 395.09 410.31 335.16 417.35 310.43"/><polygon class="cls-3" points="404.77 355.74 447.24 412.29 439.96 440.4 397.73 380.48 404.77 355.74"/><polygon class="cls-4" points="371.27 532.71 382 553.99 403.08 540.93 371.27 532.71"/></g></svg>